<?xml version="1.0" encoding="UTF-8" standalone="no"?>
<svg width="381px" height="79px" viewBox="0 0 381 79" version="1.1" xmlns="http://www.w3.org/2000/svg" xmlns:xlink="http://www.w3.org/1999/xlink" xmlns:sketch="http://www.bohemiancoding.com/sketch/ns">
    <!-- Generator: Sketch 3.1.1 (8761) - http://www.bohemiancoding.com/sketch -->
    <title>Connext Black@1x</title>
    <desc>Created with Sketch.</desc>
    <defs></defs>
    <g id="Page-1" stroke="none" stroke-width="1" fill="none" fill-rule="evenodd" sketch:type="MSPage">
        <g id="Artboard-4" sketch:type="MSArtboardGroup" transform="translate(-59.000000, -210.000000)">
            <g id="Connext-Black" sketch:type="MSLayerGroup" transform="translate(60.000000, 211.000000)">
                <path d="M-0.203270756,48.345617 C-0.203270756,66.1698357 10.2482801,77.9955193 29.2870511,77.9955193 C36.1794251,77.9955193 43.7497376,75.9388787 48.777781,72.9681756 L47.0264401,61.4852654 C42.3938608,63.6561638 36.6313841,65.0843865 31.3773612,65.0843865 C21.2082847,65.0843865 16.0107568,57.5433709 16.0107568,46.1175896 C16.0107568,26.1224724 25.1629256,12.6400506 39.3431378,12.6400506 C45.1621094,12.6400506 50.1336579,13.9540154 53.0713911,14.810949 L57.3650012,3.27090993 C54.8792269,1.84268727 48.3258221,-0.271082261 40.9249942,-0.271082261 C16.349726,-0.271082261 -0.203270756,19.7811638 -0.203270756,48.345617 L-0.203270756,48.345617 Z M76.0083081,77.9955193 C95.5555329,77.9955193 108.379868,60.9139763 108.379868,37.5482537 C108.379868,25.3226677 101.430999,17.2103631 89.5670767,17.2103631 C69.9068622,17.2103631 57.1955166,34.3490349 57.1955166,57.7147576 C57.1955166,69.8832146 64.2008804,77.9955193 76.0083081,77.9955193 L76.0083081,77.9955193 Z M78.3810926,66.626867 C74.4829466,66.626867 72.5056262,63.541906 72.5056262,56.9720818 C72.5056262,41.9471795 78.8895464,28.8646599 87.2507871,28.8646599 C91.1489331,28.8646599 93.0697586,31.6068474 93.0697586,38.1766716 C93.0697586,53.2587029 86.855323,66.626867 78.3810926,66.626867 L78.3810926,66.626867 Z M121.204204,18.3529412 C121.430183,21.0951287 121.147709,25.6083123 120.017811,32.6922966 L113.125437,76.8529412 L128.040083,76.8529412 L129.39596,68.0550896 C133.068126,44.6322381 144.706069,32.2352654 150.016587,32.2352654 C153.293289,32.2352654 153.06731,36.6913201 152.728341,38.6908318 L148.54772,65.4271599 C147.813287,70.2259881 148.321741,75.3104607 148.88669,76.8529412 L162.840922,76.8529412 C162.614943,74.1107537 162.840922,69.5975701 163.97082,62.5135857 L168.03845,36.8055779 C169.846286,25.2655388 167.078038,17.2103631 156.965456,17.2103631 C146.739885,17.2103631 137.587716,28.0648552 130.808331,43.0326287 C132.051219,39.204992 134.141529,33.2064568 135.045447,28.807531 C135.89287,24.9227654 136.062354,20.923742 135.271426,18.3529412 L121.204204,18.3529412 Z M183.687529,18.3529412 C183.913509,21.0951287 183.631034,25.6083123 182.501137,32.6922966 L175.608763,76.8529412 L190.523408,76.8529412 L191.879285,68.0550896 C195.551452,44.6322381 207.189395,32.2352654 212.499913,32.2352654 C215.776615,32.2352654 215.550635,36.6913201 215.211666,38.6908318 L211.031046,65.4271599 C210.296613,70.2259881 210.805066,75.3104607 211.370015,76.8529412 L225.324248,76.8529412 C225.098268,74.1107537 225.324248,69.5975701 226.454145,62.5135857 L230.521776,36.8055779 C232.329612,25.2655388 229.561363,17.2103631 219.448781,17.2103631 C209.22321,17.2103631 200.071041,28.0648552 193.291657,43.0326287 C194.534544,39.204992 196.624854,33.2064568 197.528772,28.807531 C198.376195,24.9227654 198.54568,20.923742 197.754752,18.3529412 L183.687529,18.3529412 Z M282.158087,30.5785271 C282.158087,22.2948357 276.678084,17.2103631 266.791482,17.2103631 C247.131267,17.2103631 236.623222,40.1190545 236.623222,59.3714959 C236.623222,72.0541131 242.159719,77.9955193 252.046321,77.9955193 C262.836841,77.9955193 272.384474,73.4252068 276.113135,71.0257927 L274.361795,60.1713006 C270.407154,61.9422966 261.763439,65.5414177 256.452921,65.5414177 C253.232713,65.5414177 251.933331,63.3133904 251.933331,59.2001091 C251.933331,57.2005974 252.046321,55.029699 252.38529,52.9159295 C269.8987,50.3451287 282.327571,43.0326287 282.158087,30.5785271 L282.158087,30.5785271 Z M265.60509,28.5790154 C267.525915,28.5790154 268.712308,29.7787224 268.712308,32.1210076 C268.712308,38.0052849 261.932923,43.1468865 253.515188,44.8036248 C255.492508,36.1771599 260.407562,28.5790154 265.60509,28.5790154 L265.60509,28.5790154 Z M367.634824,4.29923024 L354.641004,5.38467946 L351.477291,18.8099724 L342.438112,19.3812615 L340.799761,29.7215935 L348.935022,29.7215935 L344.019969,60.7997185 C342.042648,73.310949 347.353166,77.9955193 357.409253,77.9955193 C364.92307,77.9955193 372.436888,74.9676873 375.93957,72.9681756 L374.188229,62.1708123 C370.911526,63.5990349 364.697091,65.5414177 361.985337,65.5414177 C359.782037,65.5414177 358.878119,64.5130974 359.047604,61.8280388 C358.991109,61.2567498 359.047604,60.514074 359.217088,59.4286248 L363.849668,29.7215935 L378.14287,29.7215935 L379.950705,18.3529412 L365.431524,18.3529412 L367.634824,4.29923024 Z" id="Connext-2" fill="#000000" sketch:type="MSShapeGroup"></path>
                <path d="M317.975834,46.7460076 L338.991925,18.3529412 L323.060372,18.3529412 L311.026965,36.8055779 L304.36057,18.3529412 L288.598502,18.3529412 L301.196858,46.6888787 L277.920971,76.8529412 L293.909019,76.8529412 L308.032737,56.5721795 L316.393977,76.8529412 L332.269036,76.8529412 L317.975834,46.7460076 Z" id="Path-2" fill="#00B0E6" sketch:type="MSShapeGroup"></path>
            </g>
        </g>
    </g>
</svg>